<svg fill="none" xmlns="http://www.w3.org/2000/svg" viewBox="0 0 100 50"><g clip-path="url(#MAIN_LOGO_fullcolor_CMYK__a)"><mask id="MAIN_LOGO_fullcolor_CMYK__b" style="mask-type:luminance" maskUnits="userSpaceOnUse" x="-20" y="-14" width="138" height="78"><path d="M-19.184-13.52h137.165v76.848H-19.184V-13.52Z" fill="#fff"/></mask><g mask="url(#MAIN_LOGO_fullcolor_CMYK__b)"><path d="M77.724 2.575h-4.59c-.326 0-.573.084-.742.252-.17.167-.254.415-.254.744v9.372c0 .547-.537.991-1.2.991-.663 0-1.2-.444-1.2-.991V3.57c0-.329-.085-.577-.252-.744-.168-.168-.415-.252-.744-.252h-4.59c-.322 0-.569.084-.74.252-.17.167-.256.415-.256.744v10.716c0 2.538 3.484 4.596 7.782 4.596 4.297 0 7.782-2.058 7.782-4.596V3.571c0-.329-.085-.577-.254-.744-.17-.168-.417-.252-.742-.252Zm-16.479 0-4.184-.001c-.585 0-1.085.42-1.185.996l-.941 5.34c-.058.326-.527.326-.583 0l-.927-5.34c-.1-.576-.6-.996-1.185-.996l-4.184.001c-.766 0-1.288.778-.998 1.487l4.146 10.14c.069.17.105.351.105.534v2.758c0 .599.485 1.084 1.083 1.084h4.516c.6 0 1.084-.485 1.084-1.084v-2.758c0-.183.036-.364.105-.533l4.146-10.141a1.078 1.078 0 0 0-.998-1.487Zm35.902.79a.948.948 0 0 0-.943-.842h-5.266a.738.738 0 0 0-.736.685l-.729 6.764a.327.327 0 0 1-.653 0l-.723-6.763a.738.738 0 0 0-.736-.686h-5.266a.948.948 0 0 0-.942.842l-1.612 14.24a.874.874 0 0 0 .868.973h3.68a.879.879 0 0 0 .878-.833l.482-7.381a.374.374 0 0 1 .748 0l.53 6.887a.794.794 0 0 0 .793.743h3.26a.794.794 0 0 0 .792-.743l.531-6.887a.374.374 0 0 1 .748 0l.482 7.381a.88.88 0 0 0 .878.833h3.68a.874.874 0 0 0 .868-.972L97.147 3.365ZM77.724 19.86h-4.59c-.326 0-.573.085-.742.252-.17.168-.254.415-.254.744v9.372c0 .547-.537.991-1.2.991-.663 0-1.2-.444-1.2-.991v-9.372c0-.329-.085-.577-.252-.744-.168-.167-.415-.251-.744-.251h-4.59c-.322 0-.569.084-.74.25-.17.168-.256.416-.256.745v10.717c0 2.538 3.484 4.595 7.782 4.595 4.297 0 7.782-2.057 7.782-4.595V20.856c0-.329-.085-.577-.254-.744-.17-.167-.417-.251-.742-.251Zm-16.479 0-4.184-.001c-.585 0-1.085.42-1.185.996l-.941 5.34c-.058.327-.527.326-.583 0l-.927-5.34c-.1-.576-.6-.996-1.185-.996l-4.184.001c-.766 0-1.288.778-.998 1.487l4.146 10.141c.069.17.105.35.105.533v2.758c0 .599.485 1.084 1.083 1.084h4.516c.6 0 1.084-.485 1.084-1.084v-2.758c0-.183.036-.364.105-.533l4.146-10.14a1.079 1.079 0 0 0-.998-1.488Zm35.902.79a.948.948 0 0 0-.943-.842h-5.266a.738.738 0 0 0-.736.686l-.729 6.763a.327.327 0 0 1-.653 0l-.723-6.763a.738.738 0 0 0-.736-.686h-5.266a.948.948 0 0 0-.942.842l-1.612 14.24a.874.874 0 0 0 .868.972h3.68a.879.879 0 0 0 .878-.832l.482-7.382a.374.374 0 0 1 .748 0l.53 6.887a.794.794 0 0 0 .793.743h3.26a.794.794 0 0 0 .792-.743l.531-6.887a.374.374 0 0 1 .748 0l.482 7.382a.88.88 0 0 0 .878.832h3.68a.874.874 0 0 0 .868-.972l-1.612-14.24Z" fill="#231F20"/><path d="M90.157 37.152h-2.93a.535.535 0 0 0-.534.535v2.964a.315.315 0 0 1-.315.315h-1.85a.315.315 0 0 1-.314-.315v-2.973a.535.535 0 0 0-.535-.534h-2.93a.535.535 0 0 0-.534.534v9.202c0 .295.24.534.535.534h2.93c.295 0 .534-.24.534-.535v-2.593c0-.174.141-.315.315-.315h1.849c.174 0 .315.141.315.315v2.593c0 .296.24.535.535.535h2.929c.295 0 .535-.24.535-.535v-9.192a.535.535 0 0 0-.535-.535Zm7.257 2.606h.817c.296 0 .535-.24.535-.536v-1.535a.535.535 0 0 0-.535-.535H92.22a.535.535 0 0 0-.535.535v1.535c0 .296.239.535.535.535h.817c.174 0 .315.141.315.315v4.422c0 .174-.14.315-.315.315h-.817a.535.535 0 0 0-.535.535v1.535c0 .296.239.535.535.535h6.012c.296 0 .535-.24.535-.535v-1.535a.535.535 0 0 0-.535-.535h-.817a.315.315 0 0 1-.315-.315v-4.422c0-.174.14-.315.315-.315ZM67.678 37.14H64.53a.535.535 0 0 0-.535.536v6.119c0 .35-.345.635-.77.635-.425 0-.769-.284-.769-.635v-6.12a.535.535 0 0 0-.535-.534h-3.148a.535.535 0 0 0-.535.535v6.98c0 1.627 2.233 2.946 4.987 2.946 2.755 0 4.988-1.32 4.988-2.945v-6.981a.535.535 0 0 0-.535-.535ZM55.24 41.371c-1.244-.48-2.53-.466-2.99-.472-.46-.007-1.245.039-1.35-.624-.106-.662.875-.783 1.97-.674 1.096.109 2.33.44 2.898.646.568.206 1.164.09 1.178-.562 0 0 .035-.458.035-1.036 0-.578-.303-1.022-.955-1.201-.653-.18-1.954-.575-3.708-.575-1.754 0-4.734.317-5.254 2.691-.52 2.375 1.374 3.58 3.174 3.814 1.8.232 3.144-.1 3.128.828-.017.928-2.1.505-3.291.352-1.19-.153-1.673-.442-2.186-.424-.513.019-.625.443-.625.717 0 .275-.032.635-.032.979s.037.896.964 1.203c.926.307 2.98.753 5.293.47 2.313-.282 3.787-1.255 3.915-3.06.128-1.806-.92-2.592-2.164-3.072Zm22.058 0c-1.243-.48-2.53-.466-2.99-.472-.46-.007-1.244.039-1.35-.624-.106-.662.875-.783 1.97-.674 1.097.109 2.33.44 2.899.646.568.206 1.163.09 1.178-.562 0 0 .035-.458.035-1.036 0-.578-.304-1.022-.956-1.201-.652-.18-1.954-.575-3.707-.575-1.754 0-4.734.317-5.254 2.691-.52 2.375 1.374 3.58 3.174 3.814 1.8.232 3.144-.1 3.127.828-.016.928-2.1.505-3.29.352-1.191-.153-1.673-.442-2.186-.424-.513.019-.625.443-.625.717 0 .275-.033.635-.033.979s.038.896.964 1.203c.927.307 2.98.753 5.293.47 2.313-.282 3.788-1.255 3.916-3.06.128-1.806-.921-2.592-2.165-3.072Z" fill="#F14B1C"/></g><mask id="MAIN_LOGO_fullcolor_CMYK__c" style="mask-type:luminance" maskUnits="userSpaceOnUse" x="-20" y="-14" width="138" height="78"><path d="M-19.184-13.52h137.165v76.848H-19.184V-13.52Z" fill="#fff"/></mask><g mask="url(#MAIN_LOGO_fullcolor_CMYK__c)"><path fill-rule="evenodd" clip-rule="evenodd" d="M37.727 27.198a7.306 7.306 0 0 0-.86-1.242 8.018 8.018 0 0 0-1.485-1.351c-.621-.441-1.441-.903-2.31-1.3a14.31 14.31 0 0 0-2.604-.915 16.253 16.253 0 0 0-2.85-.407c-.225-.014-.457-.014-.686-.02-.367.053-.716.116-.91.164-.556.249-.727.443-1.258.474-.928.055-1.394-.338-1.903-.355-.42-.014-.79.267-1.171.456-.648.321-1.359.458-2.013.39l-.084.031c-.781.326-1.612.773-2.541 1.366-.99.633-1.763 1.228-2.362 1.819a9.682 9.682 0 0 0-1.627 2.133c-.033.06-.06.117-.09.175.756.35 1.531.638 2.584 1.03 1.021.488 1.749 1.03 2.255 1.592.36-.2.726-.427 1.08-.65.284-.178.578-.363.87-.533a13.37 13.37 0 0 1 2.048-.984c.641-.238 1.193-.366 1.97-.458.84-.098 1.814-.14 2.673-.119a16.59 16.59 0 0 1 2.59.275 20.8 20.8 0 0 1 2.44.612c.245.076.5.157.76.241a30.91 30.91 0 0 0 2.007.595c1.057.261 1.983.358 2.333.388.105.009.193.014.272.018a2.27 2.27 0 0 1 .329-.004.673.673 0 0 0 .246-.065c.165-.083.347-.254.498-.467.161-.227.255-.457.295-.725a3.02 3.02 0 0 0-.056-1.06 4.206 4.206 0 0 0-.44-1.104Z" fill="#F46B17"/><path fill-rule="evenodd" clip-rule="evenodd" d="M11.065 42.635a5.702 5.702 0 0 0-.736-.236c-1.072-.257-4.736-1.01-6.877.081a.248.248 0 1 1-.226-.442 5.076 5.076 0 0 1 1.098-.392c-.932-1.262-1.729-2.528-2.121-3.916C1.317 38.784.737 40.06.57 41.352c-.192 1.486.168 2.86 1.042 3.975.908 1.16 2.298 2.143 4.019 2.845.201.083.406.16.613.233.408-.203 1.219-.69 2.728-1.853 1.943-1.498 2.113-3.22 2.093-3.918Z" fill="#343738"/><path fill-rule="evenodd" clip-rule="evenodd" d="M4.74 41.556c.1-.57.506-2.007 2.125-3.107.833-.566 1.303-1.028 1.572-1.38-.871-.418-1.612-.932-2.236-1.712-.168-.21-.38-.35-.246-.708.175-.057.228-.078.406.032.404.328 1.677 1.17 2.424 1.593-1.87-1.53-3.056-3.959-2.426-7.452.477-2.649 1.36-4.25 1.76-4.87l-.003-.002-.317-.297c-.607.615-2.025 2.923-2.557 3.769-2.664 4.234-3.834 9.865-.673 14.164.056-.011.113-.02.17-.03Zm13.05 7.048c.766-.454.755-.551 1.187-1.184 1.225-1.79 1.846-6.158 1.37-7.66-.19-.594-.65-1.196-1.29-.908l.024 1.22c-.711.03-.523-.374-.662-1.012-.291-1.336-2.11-2.255-2.802-1.326.401.158.898.85.611 1.51-.55-.14-1.852-2.425-3.495.155-.448 1.043-.3 2.324-.154 3.44.95.582 1.858 1.375 2.414 2.287.505.826.663 1.645.47 2.431-.156.636-.637 1.095-1.26 1.422.544.082 1.084.14 1.61.142.648.002 1.297-.112 1.976-.517Zm16.62-.396c.97-.379 1.846-1.3 2.411-2.166.216-.33.362-.55.57-.953.742-1.437 1.357-3.17 1.159-4.836-.087-.724-.475-1.674-1.244-1.59-.097.766-.076 1.046-.479 1.168-.243-.17-.159-.03-.218-.391-.07-.419-.063-.917-.496-1.227-.581-.417-1.111-.244-1.821-.205.15.212.272.33.351.512.068.156.099.354-.017.456-.517.244-.489-.07-.803-.42-.776-.863-1.493-.218-2.073.385-1.258 1.307-.999 4.534-3.941 7.327.305.196.73.278 1.07.45 1.083.547 2.223 1.303 3.008 1.568.834.283 1.692.246 2.523-.078Z" fill="#343738"/><path fill-rule="evenodd" clip-rule="evenodd" d="M20.802 31.384c.442.106.887.103 1.237-.045-.02-.417-.04-.293-.378-.466l-.238-.152c.975-.374 1.837-.826 2.962-1.167 1.396-.423 2.755.658 4.186.615-.177.298-.239.392-.027.687.558.205 1.038-.484 1.59-.631.243-.066 1.645.191 1.915.459-1.21.308-.597 1.114.155.68.238-.138.163-.14.292-.226l.315-.073c.15.017.243.062.426.083-.005.896-.334.76.004 1.68 1.011-.174.544-.962 1.249-1.05a.839.839 0 0 1 .155.388 3.58 3.58 0 0 1 .697-.884 16.068 16.068 0 0 1-1.29-.26 31.63 31.63 0 0 1-2.062-.611 55.183 55.183 0 0 0-.75-.238c-.876-.27-1.6-.452-2.346-.59-.844-.154-1.65-.24-2.462-.261a19.1 19.1 0 0 0-2.556.114c-.705.083-1.204.198-1.778.411a12.63 12.63 0 0 0-1.92.923c-.28.164-.567.345-.845.52-.334.209-.678.42-1.024.617.074.125.137.249.194.373.507-.242 1.056-.498 1.445-.725.487-.284.28-.307.854-.17Zm2.898 9.407c.906.054 1.543.012 2.435-.042.612-.036 3.376-.554 4.014-.616a10.071 10.071 0 0 1 .628-1.191c.08-.123.158-.217.218-.326a.83.83 0 0 0 .09-.25c.018-.097.024-.215.012-.365a3.62 3.62 0 0 1-.763.106c-.188.004-.369-.008-.713.01a.685.685 0 0 0-.126.02c-.293.072-.582.313-1.132.322-.49.008-1.175-.254-1.356-.242-.11.007-.556.222-1.017.308a3.467 3.467 0 0 1-.843.046c-.249-.024-.394-.096-.818-.176-.149-.028-.36.07-.585.177l-.119.056a3.89 3.89 0 0 1-.211.093c-.066.026-.13.05-.194.065a3.136 3.136 0 0 1-.8.104 2.077 2.077 0 0 1-.621-.1 2.505 2.505 0 0 1-.249-.095c-.184-.083-.338-.175-.488-.238a.776.776 0 0 0-.46-.069c.387.76.593 1.486.675 2.22l.004.02c.602-.065 1.766.124 2.42.163Z" fill="#D8DACF"/><path d="M21.232 37.512c.229.116.447.253.706.344.364.128.812.163 1.505-.105.451-.174.48-.413 1.032-.263.284.077.518.124.722.147.103.011.198.017.289.017.452.002.787-.124 1.322-.273a.932.932 0 0 1 .337-.04.868.868 0 0 1 .172.033c.055.016.11.036.172.055.278.085.683.163 1.778-.122.244-.064.44-.047.648-.029.104.009.211.018.33.017.117-.002.246-.012.393-.043.238-.05.378-.096.48-.15.103-.055.166-.115.25-.193.056-.052.12-.112.212-.182a.523.523 0 0 1 .116-.069.356.356 0 0 1 .108-.027c.142-.012.275.065.449.141.087.038.184.077.297.103.955.22 1.578-.428 1.813-1-.23-.435-.329-.971-.318-1.534-.304.596-.802 1.341-1.365 1.524-.205-.148-.25-.468-.717-.194-.165.098-1.37 1.41-2.116.777.182-.396.51-.709.281-1.087-.211-.004-.323.152-.49.368l-.477.535c-.474.553-1.072.393-1.366.135.125-.36.843-.887.567-1.534-.98-.053-.028 1.841-3.563 1.834-.046-.154.015-.208.018-.214.095-.247.34-.285.158-.678-.361-.022-.304.13-.812.538-.25.2-.396.346-.805.458-1.783.492-1.68-.567-1.685-.575-.357.047-.547.38-1.062.543-.448.14-1.02.094-1.364-.138.081-.303.78-.867.475-1.166-.308-.301-.318.154-.771.344-.253-.307-.402-.458-.508-.497-.206.438-.463.783-.684.983a2.805 2.805 0 0 1-.206.163c-.07.052-.143.106-.22.16-.052.04-.105.078-.157.117.01.006.022.007.033.009.012.002.022.006.027.02.005.012.017.018.029.02-.034-.01-.01 0 .031.014.025.01.055.02.084.03a2.692 2.692 0 0 0 .083.028c.002 0-.002-.001-.003-.002a.907.907 0 0 0-.06-.025l-.132-.044h-.002l.031.005.104.04.023.007.12.041c.253.086.41.141.581.24.12.067.247.155.424.289.085.065.324.294.424.341.401.189.888 0 1.337-.15.1-.034.198-.066.293-.091.142-.038.277-.06.4-.054.082.005.16.023.23.059Z" fill="#D8DACF"/><path d="M23.582 2.899c.616.66 3.729 1.17 5.88 5.968.796-.725 1.567-5.98.733-7.58-.756-1.45-5.682 1.034-6.613 1.612ZM22.09 15.575c.832 1.602 2.475 1.41 2.475 1.41s-.257 1.3 2.093 1.58c1.948.233 3.676-.368 4.285-.83-.043-.377-.107-.648-.289-1.238-.643-2.082-.34-2.419-.74-4.258-.903-3.119-2.438-5.67-4.962-7.57-1.258-1.03-3.482-1.74-5.83-1.9.71.81 2.543 3.084 2.854 5.324.39 2.788-.716 5.88.115 7.482Z" fill="#343738"/><path fill-rule="evenodd" clip-rule="evenodd" d="M23.318 34.243c-.063-.186-.052-.574-.21-.773-.701.108-.351 1.253.17 1.44.728.033 1.054-.172 1.308-.593.52-.863.198-1.926-.195-.944-.195.487-.28 1.152-1.073.87Zm7.855-1.232c-.393-.209-.448.128-.96-.237-.318-.227-.372-.519-.926-.542-.027.727.213.899.736 1.156.488.24 1.15.402 1.15-.377Zm-5.109-1.185c1.007.393 1.864-2.522.408-.784-.196.232-.434.387-.408.784Z" fill="#D8DACF"/><path fill-rule="evenodd" clip-rule="evenodd" d="M34.062 46.721c1.176 2 3.032-1.746 1.346-3.06-.942-.733-1.953.16-2.384.619-.394.42-.67 1.103-.69 1.802-.053 1.853 1.03.757 1.728.64Zm-18.788-5.3c-.078-.54-.508-1.261-1.107-1.097-.434.119-.716 1.448-.323 2.212.59 1.15 1.637.326 1.43-1.115Zm17.514-1.313c-1.02.459-.81 2.855.179 2.51.187-.065.389-.335.477-.536.397-.898.055-2.293-.656-1.974ZM17.46 42.086c.626-.582.432-2.11-.142-2.274-.789-.227-1.087 1.089-.863 1.893.15.54.518.833 1.005.381Zm18.04-2.069c-1.077.269-1.134 2.529-.161 2.257.932-.26 1.074-2.484.16-2.257Zm-16.59 1.33c-.227.682-.073 1.536.33 1.64.56.141.976-.848.875-1.664-.147-1.178-.916-.843-1.205.024Zm18.845 1.76c.445-.285.566-.926.495-1.452-.1-.754-.502-.886-1.017-.305-.275.31-.42.801-.3 1.367.111.518.287.733.822.39Zm-20.389.481c-1.119-.483-1.986.397-2.42 1.47.014.023.031.045.045.069.505.826.662 1.644.47 2.432-.015.059-.035.115-.055.172.206-.001.453-.076.75-.255 1.091-.655.538-.197 1.458.092.575.18.912-.49 1.032-1.007.304-1.302-.44-2.61-1.28-2.973Z" fill="#F68788"/><mask id="MAIN_LOGO_fullcolor_CMYK__d" style="mask-type:luminance" maskUnits="userSpaceOnUse" x="15" y="26" width="24" height="6"><path d="M15.719 26.05h22.528v5.188H15.719V26.05Z" fill="#fff"/></mask><g mask="url(#MAIN_LOGO_fullcolor_CMYK__d)"><path fill-rule="evenodd" clip-rule="evenodd" d="M34.355 26.744a21.386 21.386 0 0 1-1.752-.152c-.804-.092-1.963-.238-3.025-.353-1.063-.115-2.03-.2-2.99-.188-.96.012-1.913.122-2.784.314-.872.192-1.663.467-2.44.792-.778.325-1.542.7-2.604 1.205-.918.436-2.058.97-3.041 1.364l.083.043a10 10 0 0 1 .523.287c.045.027.09.054.133.082a6.214 6.214 0 0 1 1.353 1.1c.361-.2.726-.427 1.08-.65.285-.178.578-.363.87-.533a13.37 13.37 0 0 1 2.048-.984c.641-.238 1.194-.366 1.97-.457.84-.099 1.815-.142 2.674-.12a16.66 16.66 0 0 1 2.59.276c.78.143 1.532.331 2.44.612.245.075.5.157.76.24.661.213 1.346.433 2.006.596 1.057.26 1.984.357 2.333.387.105.009.193.014.273.018.052-.004.102 0 .154-.002.053 0 .108-.005.16-.001h.015a.674.674 0 0 0 .245-.066c.166-.083.348-.254.499-.467.161-.227.255-.457.294-.725a3 3 0 0 0-.056-1.06 4.202 4.202 0 0 0-.44-1.104 7.218 7.218 0 0 0-.444-.704 23.97 23.97 0 0 1-1.16.176c-.73.088-1.272.092-1.767.073Z" fill="#E43B1D" opacity=".5"/></g><path fill-rule="evenodd" clip-rule="evenodd" d="M17.142 27.468c.675.147.97.622.777 1.289-.207.716-.49 1.252-.851 1.798.284.22.529.444.735.672.744-.988 1.545-2.141 1.68-3.21.205-1.641-2.668-2.127-4.286-2.174-.18.155-.35.309-.506.462a9.53 9.53 0 0 0-.804.904c.613.027 1.18.055 1.637.083.828.051 1.301.106 1.618.176Zm7.046-1.181c.167.533-.644 1.69-1.197 2.451.245-.048.5-.09.79-.125.288-.033.592-.058.901-.078.505-.774 1.431-2.23 1.35-2.466-.348-1.01-4.696-2.21-5.69-2.444-.38-.09-.798-.184-1.238-.282a15.82 15.82 0 0 0-1.159.608c.622.108 1.197.212 1.672.304.843.164 4.285 1.12 4.57 2.032Zm.433-3.686a23.2 23.2 0 0 1 2.066.947c.684.354 3.753 1.805 3.758 2.776.003.574-1.424 1.678-2.276 2.309a16.465 16.465 0 0 1 1.513.266c1.04-.553 2.188-1.147 2.374-2.372.248-1.63-3.795-3.584-5.052-4.184a55.118 55.118 0 0 0-.62-.291 6.82 6.82 0 0 0-.362.074c-.556.25-.727.443-1.257.475-.05.003-.096 0-.144 0Z" fill="#FCD9B2"/><path fill-rule="evenodd" clip-rule="evenodd" d="M31.035 22.54c.438.379.854.745 1.23 1.084.85.768 2.344 2.13 2.911 3.128.825 1.448-.186 1.914-1.34 2.61-.241.146-.527.314-.84.495.42.13.842.257 1.254.358.199.05.39.091.577.129.315-.174.602-.338.838-.486 1.244-.776 1.809-1.857.965-3.261a3.608 3.608 0 0 0-.245-.356c-.623-.8-1.562-1.679-2.431-2.5-.285-.151-.578-.3-.88-.438a14.749 14.749 0 0 0-2.039-.763Z" fill="#FCD9B2"/><path fill-rule="evenodd" clip-rule="evenodd" d="M10.092 6.702c.121-1.551-2.025-2.905-3.103-3.72-.298-.168-1.243-.743-1.64-.442-.81.629.525 7.16 1.714 7.534.812-1.632 1.296-3.326 3.029-3.372Zm19.043-4.917a6.083 6.083 0 0 0-.52.328L26.61 3.407c-.21.146-.646.58-.786.84.772.536 1.643 1.314 2.47 2.517.206.274.367.52.45.709.032.053.064.105.095.16.548-.425.843-2.207.928-2.834.11-.8.352-2.708-.193-3.315-.222.16-.143.137-.439.3Z" fill="#F68788"/><path d="M12.252 19.741c.418.066.723.203 1.084.282.95.207.994-.986-1.75-1.12-.745-.035-1.956-.055-1.79.763.38.133 1.745-.037 2.456.075Zm1.678 1.113c-.863-.16-4.112.56-3.399 1.277.16.16 2.12-.476 2.835-.642.478-.111.649-.13.564-.635ZM8.359 6.749c-.158.3-.034.777.015 1.173.054 1.079.475.74.52.637.163-.377.252-2.19-.535-1.81Zm8.685 9.892c.392.314.827.938 1.272.81.482-1.361-1.392-2.807-2.653-2.93-1.724-.17-3.415 1.335-2.98 2.584.774.216 1.837-2.483 4.361-.464Zm7.716.464c.253.168.386-.117.6-.3.166-.142.25-.25.428-.42.327-.314.453-.443.953-.66 1.277-.554 1.91.687 2.127.8.902-.379.002-1.854-.939-2.128-.386-.113-.745-.162-1.159-.076-.804.169-1.7 1.176-1.937 1.872-.12.35-.333.738-.072.912Zm-9.642-6.075c.378.1 1.09.493 1.328.336.572-.376-1.493-1.331-1.985-1.07-.688.366.326.644.657.733Zm3.223-.087c.128.175.274.453.512.214.28-.28-.728-1.739-1.114-1.839-.532-.137-.587.286-.272.645.211.242.556.545.874.98Zm8.389-.109c.205-.111.325-.325.533-.51.615-.549.37-1.147-.166-.777-.228.157-.4.436-.561.644-.305.395-.405.967.193.643Zm-1.553-.12c.053-.152.045-.44.197-.842.414-1.102-.256-1.07-.495-.356-.136.409-.195.918-.157 1.141.055.308.319.449.455.057Z" fill="#040708"/><path d="M37.391 45.09c-.208.403-.353.623-.569.953-.566.866-1.441 1.788-2.41 2.166-.832.323-1.691.361-2.525.078-.784-.265-1.925-1.022-3.007-1.568-.341-.172-.765-.255-1.071-.45 2.942-2.793 2.683-6.02 3.942-7.327.58-.603 1.297-1.248 2.073-.384.314.35.286.663.802.42.116-.103.085-.3.018-.456-.08-.184-.202-.301-.352-.513.71-.04 1.24-.212 1.822.205.433.31.426.808.495 1.227.06.36-.024.22.219.39.403-.12.382-.402.478-1.168.77-.083 1.158.867 1.244 1.591.199 1.667-.416 3.399-1.159 4.836Zm-11.44 1.427c-1.944.96-3.758.977-6.175 1.074.24-.856.818-1.492 1.238-3.633.406-2.065.535-3.715-.412-5.57.664-.12.992.806 2.618.398.392-.098.846-.44 1.108-.392.68.128.643.237 1.464.16.525-.05 1.089-.33 1.216-.337.18-.012.866.25 1.354.242.63-.01.918-.324 1.26-.343.688-.035.72.05 1.475-.115.05.6-.188.682-.4 1.075-1.764 2.946-1.096 5.44-4.746 7.44Zm-6.975.904c-.432.632-.422.73-1.188 1.184-.68.405-1.329.52-1.976.517a11.205 11.205 0 0 1-1.61-.142c.623-.327 1.104-.786 1.26-1.422.192-.787.034-1.605-.47-2.431-.556-.912-1.465-1.706-2.415-2.288-.145-1.115-.293-2.396.155-3.44 1.643-2.58 2.945-.294 3.495-.154.287-.66-.21-1.352-.611-1.51.691-.93 2.51-.01 2.802 1.326.139.638-.05 1.04.662 1.011l-.025-1.22c.64-.288 1.101.314 1.29.91.477 1.5-.145 5.869-1.37 7.66ZM10.45 49.21c-1.578-.045-3.29-.414-4.818-1.038-1.722-.702-3.112-1.686-4.02-2.845C.74 44.21.378 42.836.57 41.35c.168-1.293.748-2.569 1.633-3.623.393 1.388 1.19 2.654 2.122 3.917-.39.095-.761.22-1.098.392a.249.249 0 0 0 .225.442c2.142-1.09 5.806-.338 6.878-.082 1.37.328 3.322 1.487 4.238 2.989.433.71.571 1.401.411 2.055-.193.791-1.107 1.217-1.84 1.435-.928.276-1.997.353-2.69.334ZM5.24 27.422c.532-.846 1.95-3.153 2.557-3.768l.317.297c.805.352 1.999 1.607 3.102 1.309.107-.506-.229-.606-.617-.819-2.446-1.342-3.864-2.54-5.033-5.128-.629-1.393-.918-3.307-.713-5.08.239-2.069 1.004-2.873.814-3.394-.12-.327-.29-.668-.426-1.026-.742-1.938-1.507-5.291-.857-7.465.293-.977.817-1.018 1.904-.864 2.353.334 4.497 1.213 6.292 2.514.528.383.997.87 1.417 1.063.184.085.415-.045.407-.248-.02-.476-.652-.876-.86-1.183 3.62-1.67 9.115-.835 11.407 1.037 2.523 1.9 4.058 4.452 4.962 7.571.4 1.84.096 2.176.74 4.258.257.832.28 1.027.337 1.783-.353.075-1.812.446-1.22.977.349.313.88-.422 1.342-.188l.04 1.072c-.392-.14-1.399-.458-1.51.024-.13.569.953.577 1.33.667l-.235.775-.075-.02c-.912-.22-1.891-.36-2.994-.428a23.104 23.104 0 0 0-1.212-.04c.096-.333.238-.803.14-1.139-.154-.518-.45-.365-.562.13-.106.467-.197.913-.61 1.248-1.409 1.137-3.133-.636-1.966-1.462.29-.205 1.368-1.16.695-1.56-.377-.224-2.218-.062-2.686-.003-2.056.266.235 1.435.628 1.812.7.672-.413 1.594-.823 1.796-.639.315-1.794.504-2.41-.004-.67-.553-.494-1.109-.66-1.715-.254-.923-.991-.314-.695.952.167.713.54 1.212 1.025 1.527-.606.296-1.241.655-1.926 1.092-1.04.665-1.857 1.295-2.497 1.927a10.523 10.523 0 0 0-1.768 2.317c-.04.073-.074.143-.11.213a21.755 21.755 0 0 1-1.867-1.128c-.45-.237-1.2-.129.184.927 1.2.916 2.25 1.316 3.674 1.914 1.698.714 3.538 1.621 3.636 3.814-.525-.138-2.573-1.159-2.298.107.36.15.765.178 1.216.297.487.129.642.281.997.435-.085.612-.735 1.367-1.233 1.49-.393.096-2.105-1.157-2.056-.212.018.338.6.379 1.086.638-.685.864-4.672.661-6.362-.036-.517-.213-2.35-1.407-2.848-1.814-.179-.109-.232-.088-.407-.031-.133.358.078.498.247.708.66.824 1.447 1.353 2.383 1.785.82.377 2.175.894 4.265.806-.21.496-1.567 1.262-1.123 4.43a6.747 6.747 0 0 0-1.28-.465c-.917-.22-3.657-.783-5.878-.327-3.16-4.299-1.99-9.93.673-14.165ZM30.197 1.287c.834 1.6.064 6.855-.733 7.58C27.313 4.07 24.2 3.56 23.584 2.9c.931-.578 5.857-3.061 6.613-1.612Zm2.876 22.019c.868.396 1.688.857 2.31 1.299a8.01 8.01 0 0 1 1.485 1.351c.338.397.619.803.86 1.243.221.406.361.756.439 1.103.082.364.102.75.056 1.06-.04.268-.133.498-.294.725-.152.214-.334.384-.5.467a.668.668 0 0 1-.245.066 2.214 2.214 0 0 0-.329.003 5.832 5.832 0 0 1-.272-.018c-.35-.03-1.276-.127-2.333-.387a30.857 30.857 0 0 1-2.007-.596c-.26-.083-.515-.165-.76-.24-.908-.281-1.66-.47-2.44-.613a16.595 16.595 0 0 0-2.59-.275 19.68 19.68 0 0 0-2.673.12c-.777.09-1.33.22-1.97.457-.648.24-1.356.58-2.048.984-.292.17-.586.355-.87.533-.354.223-.72.45-1.08.65-.506-.56-1.233-1.104-2.255-1.592-1.053-.392-1.827-.68-2.584-1.03.03-.058.057-.116.09-.175a9.686 9.686 0 0 1 1.627-2.134c.599-.59 1.372-1.185 2.362-1.818.929-.593 1.76-1.04 2.541-1.366.027-.012.057-.02.084-.032.654.07 1.365-.068 2.013-.39.381-.189.752-.47 1.171-.455.51.017.976.41 1.904.355.53-.031.701-.225 1.257-.474.195-.048.543-.111.91-.165.23.007.461.007.687.021 1.053.064 1.985.197 2.85.407.858.207 1.71.507 2.604.916Zm5.109 11.058c-.298.794-.997 1.919-2.107 1.775-1.163-.15-1.356-1.324-1.084-2.51.503.018 1.253.454 1.663.23.079-.583-.942-.776-1.43-.852.896-2.722 4.05-1.551 2.958 1.357Zm-3.82 1.511c-.236.572-.86 1.221-1.813 1-.454-.104-.647-.395-.971-.147-.364.28-.308.393-.941.525-.589.123-.884-.073-1.371.054-1.947.508-1.714-.132-2.46.075-.856.238-1.2.418-2.332.109-.553-.15-.581.088-1.032.262-1.186.458-1.661.042-2.211-.239-.562-.286-1.547.572-2.26.236-.1-.047-.339-.275-.424-.34-.47-.358-.596-.39-1.125-.57l-.024-.008c.236.091-.244-.08-.135-.045-.012-.003-.023-.008-.029-.021-.01-.026-.041-.016-.06-.028.207-.158.44-.31.583-.44.668-.604 1.675-2.515.551-4.392.347-.196.691-.408 1.025-.618.278-.174.565-.355.846-.519.651-.38 1.315-.699 1.918-.923.575-.213 1.073-.328 1.78-.41.79-.093 1.745-.136 2.555-.115.813.021 1.618.107 2.462.262.746.137 1.47.318 2.346.589.241.075.493.155.75.238.676.216 1.374.44 2.062.61.466.116.906.2 1.29.261-1.216 1.092-1.666 3.297-.98 4.594Zm4.463 2.76c-.33-.448-1-.954-1.746-.658-.837-.842-1.182-.928-2.734-.736.18-.32.293-.304.535-.578.78.292 1.25.676 2.224.186 2.486-1.25 2.594-4.67 1.098-5.838.168-.149.306-.31.401-.446.235-.332.379-.685.438-1.08a3.818 3.818 0 0 0-.067-1.365 5.005 5.005 0 0 0-.521-1.318 8.089 8.089 0 0 0-.956-1.382 8.848 8.848 0 0 0-1.636-1.49c-.672-.477-1.517-.953-2.444-1.377a15.892 15.892 0 0 0-1.874-.72l.2-.83c.398.046 1.027.268 1.359.074.35-.613-.78-.727-1.26-.774l.091-1.51c.32-.05.704-.135 1.05-.208.358-.076.605-.135.615-.388.029-.772-1.315-.23-1.825-.197-.312-2.094-.627-1.22-.872-4.292-.152-1.905-.991-3.742-.807-4.182.53-1.262.907-2.568 1.11-4.157.15-1.182.193-3.756-.41-4.598-.861-1.206-2.566-.608-4.005-.15-1.34.428-2.585.92-3.674 1.573-.937.562-.68.248-2.012.05-2.387-.353-4.796-.373-7.082.34-1.384.43-1.045.614-1.779.14C10.794 1.792 8.14.985 6.388.707c-1.986-.315-2.63.297-2.934 2.066-.264 1.54-.1 3.23.24 4.692.204.868.574 2.175.912 2.986.169.405.333.515.163.91-1.747 4.066-.518 9.085 2.425 11.712-.115.323-1.086 1.489-1.365 1.889-2.678 3.832-3.467 5.898-3.813 9.764h-.004c-.019.226-.038.453-.052.684-.038.521-.01 1.02.065 1.504a1.146 1.146 0 0 1-.039.3C.946 38.372.268 39.82.078 41.285c-.21 1.62.186 3.124 1.144 4.346.961 1.227 2.421 2.264 4.222 2.999 1.583.646 3.356 1.027 4.992 1.074a10.172 10.172 0 0 0 1.898-.14c2.007.359 3.994.466 5.187.045 1.022-.36 1.305-.865 1.63-1.081.39-.26 1.946-.072 2.567-.135a23.072 23.072 0 0 0 2.36-.353c3.019-.641 2.147-1.476 4.021-.71 1.724.71 3.315 2.04 5.201 1.94 4.065-.214 7.537-7.896 5.525-10.636Z" fill="#040708"/><path d="m17.266 36.788.134.044-.103-.039-.031-.005Z" fill="#040708"/></g></g><defs><clipPath id="MAIN_LOGO_fullcolor_CMYK__a"><path fill="#fff" d="M0 0h99.057v50H0z"/></clipPath></defs></svg>