<svg fill="none" xmlns="http://www.w3.org/2000/svg" viewBox="0 0 27 16"><path d="M27 8c0 4.39-3.57 8-8 8-4.39 0-8-3.61-8-8 0-4.39 3.57-8 7.959-8C23.431 0 27 3.61 27 8Z" fill="#F9B50B"/><path d="M16.291 8.041c0-.574-.082-1.149-.164-1.682h-4.923c.04-.287.123-.533.205-.862h4.39a7.4 7.4 0 0 0-.329-.861h-3.733c.123-.287.287-.533.451-.862h2.831a5.6 5.6 0 0 0-.615-.861h-1.56c.247-.287.493-.534.821-.82C12.271.778 10.383 0 8.291 0 3.942.123.332 3.61.332 8c0 4.39 3.57 8 8 8 2.092 0 3.938-.82 5.374-2.092.288-.246.534-.534.82-.862h-1.64a5.86 5.86 0 0 1-.574-.82h2.79c.163-.247.328-.534.45-.862H11.82a4.199 4.199 0 0 1-.328-.861h4.39c.246-.739.41-1.56.41-2.462Z" fill="#C8191C"/><path d="m11.164 10.05.123-.739c-.04 0-.123.041-.205.041-.287 0-.328-.164-.287-.246l.246-1.477h.452l.123-.82h-.41l.081-.493h-.861s-.492 2.79-.492 3.118c0 .493.287.739.697.739.246 0 .451-.082.533-.123Zm.286-1.353c0 1.19.82 1.477 1.476 1.477.615 0 .903-.123.903-.123l.164-.82s-.452.205-.903.205c-.943 0-.78-.698-.78-.698h1.724s.123-.533.123-.78c0-.533-.287-1.23-1.23-1.23-.821-.041-1.478.902-1.478 1.97Zm1.476-1.23c.451 0 .37.533.37.574h-.944c.04-.041.123-.575.574-.575ZM18.3 10.05l.163-.944s-.41.205-.738.205c-.574 0-.862-.45-.862-.984 0-1.026.493-1.56 1.108-1.56.41 0 .78.247.78.247l.123-.903s-.492-.205-.985-.205c-.985 0-1.928.862-1.928 2.462 0 1.066.492 1.764 1.518 1.764.37.04.82-.082.82-.082ZM6.526 6.688c-.575 0-1.026.164-1.026.164l-.123.738s.37-.164.944-.164c.287 0 .533.041.533.287 0 .164-.041.205-.041.205h-.37c-.738 0-1.517.287-1.517 1.272 0 .78.492.944.82.944.575 0 .862-.37.903-.37l-.041.329h.697l.328-2.339c0-1.025-.82-1.066-1.107-1.066Zm.164 1.887c0 .123-.082.82-.574.82-.247 0-.329-.205-.329-.328 0-.205.123-.492.78-.492h.123Zm1.765 1.557c.205 0 1.272.04 1.272-1.108 0-1.067-1.026-.862-1.026-1.272 0-.205.165-.287.452-.287.123 0 .574.041.574.041l.123-.78s-.287-.081-.82-.081c-.616 0-1.272.246-1.272 1.107 0 .985 1.067.903 1.067 1.272 0 .246-.288.287-.493.287-.369 0-.78-.123-.78-.123l-.122.78c.082.082.328.164 1.025.164Zm16.903-4.101-.164 1.149s-.328-.41-.82-.41c-.78 0-1.436.943-1.436 2.051 0 .697.328 1.395 1.066 1.395.492 0 .82-.328.82-.328l-.04.287h.861l.616-4.062-.903-.082Zm-.41 2.216c0 .45-.205 1.066-.698 1.066-.287 0-.451-.246-.451-.697 0-.698.287-1.108.698-1.108.287.041.45.246.45.739ZM1.89 10.093l.493-3.036.082 3.036h.575l1.107-3.036-.451 3.036h.903l.697-4.062H3.901L3.04 8.534 2.999 6.03H1.768l-.698 4.062h.82Z" fill="#fff"/><path d="M15.018 10.093c.246-1.395.287-2.544.902-2.339.082-.533.205-.78.288-.984h-.165c-.369 0-.697.492-.697.492l.082-.451h-.82l-.534 3.282h.944Zm5.254-3.405a3.33 3.33 0 0 0-1.026.164l-.123.738s.37-.164.944-.164c.287 0 .533.041.533.287 0 .164-.04.205-.04.205h-.37c-.739 0-1.518.287-1.518 1.272 0 .78.492.944.82.944.575 0 .862-.37.903-.37l-.041.329h.78l.328-2.339c0-1.025-.903-1.066-1.19-1.066Zm.205 1.887c0 .123-.082.82-.574.82-.246 0-.329-.205-.329-.328 0-.205.123-.492.78-.492h.123Zm1.639 1.518c.246-1.395.287-2.544.902-2.339.082-.533.205-.78.287-.984h-.164c-.37 0-.697.492-.697.492l.082-.451h-.82l-.534 3.282h.944Z" fill="#fff"/></svg>