<svg fill="none" xmlns="http://www.w3.org/2000/svg" viewBox="0 0 53 16"><path d="M48.827.227h-3.276c-.99 0-1.753.304-2.21 1.295l-6.247 14.247h4.419s.762-1.904.914-2.361h5.41c.152.533.533 2.285.533 2.285h3.962L48.827.227Zm-5.18 9.98c.38-.914 1.675-4.342 1.675-4.342 0 .076.381-.915.534-1.448l.304 1.371s.839 3.734.99 4.496h-3.504v-.077Zm-6.247.46c0 3.2-2.896 5.333-7.391 5.333-1.905 0-3.733-.381-4.724-.838l.61-3.505.533.229c1.371.61 2.286.838 3.962.838 1.219 0 2.514-.457 2.514-1.524 0-.686-.533-1.143-2.21-1.905-1.6-.762-3.733-1.98-3.733-4.19C26.961 2.057 29.933 0 34.123 0c1.6 0 2.972.305 3.81.686l-.61 3.352-.304-.305c-.762-.304-1.753-.61-3.2-.61-1.6.077-2.362.763-2.362 1.372 0 .686.914 1.22 2.361 1.905 2.439 1.143 3.581 2.438 3.581 4.267Z" fill="#3362AB"/><path d="M.219.383.295.078h6.552c.915 0 1.6.305 1.829 1.295l1.447 6.858C8.677 4.573 5.324 1.6.22.383Z" fill="#F9B50B"/><path d="m19.343.229-6.628 15.466H8.22L4.41 2.743c2.743 1.752 5.029 4.495 5.867 6.4l.457 1.6L14.848.153h4.495v.076Zm1.753-.077h4.19L22.62 15.695h-4.19L21.096.152Z" fill="#3362AB"/></svg>